<!--
  Evidence of Life — favicon fallback (SVG).
  Primary Home Screen / tab icons are PNG/ICO generated from
  src/assets/evidence-logo-light.png (path + sun). This SVG is a
  compact cream-canvas stand-in for browsers that prefer SVG.
-->
<svg xmlns="http://www.w3.org/2000/svg" viewBox="0 0 64 64" shape-rendering="geometricPrecision">
  <rect x="2" y="2" width="60" height="60" rx="14" fill="#FBF4E6" />
  <g fill="#E5BE52">
    <rect x="42.2" y="6" width="3.2" height="6" rx="1.6" />
    <rect x="33.5" y="10" width="3.2" height="6" rx="1.6" transform="rotate(-40 35.1 13)" />
    <rect x="52.5" y="10" width="3.2" height="6" rx="1.6" transform="rotate(40 54.1 13)" />
    <rect x="29" y="20" width="6" height="3.2" rx="1.6" />
    <rect x="53" y="20" width="6" height="3.2" rx="1.6" />
  </g>
  <path d="M32 28C32 21.373 37.373 16 44 16C50.627 16 56 21.373 56 28V29.2H32V28Z" fill="#F0D06A" />
  <circle cx="55" cy="33" r="3.5" fill="#9CAC8A" />
  <path d="M12 48C20 40 32 34 46 30" stroke="#E2C897" stroke-width="5" stroke-linecap="round" fill="none" />
  <ellipse cx="40" cy="40" rx="3.2" ry="2.2" transform="rotate(-14 40 40)" fill="#E2C897" />
  <ellipse cx="30" cy="45" rx="3.4" ry="2.3" transform="rotate(-10 30 45)" fill="#DFC58E" />
  <ellipse cx="20" cy="50" rx="3.2" ry="2.2" transform="rotate(-6 20 50)" fill="#DCC086" />
</svg>
